HIERARCHY
ROOT SimulationBone
{
	OFFSET 0.000000 0.000000 0.000000
	CHANNELS 6 Xposition Yposition Zposition Zrotation Yrotation Xrotation 
	JOINT Hips
	{
		OFFSET 0.000000 0.000000 0.000000
		CHANNELS 6 Xposition Yposition Zposition Zrotation Yrotation Xrotation 
		JOINT LeftUpLeg
		{
			OFFSET 0.103458 1.857838 10.548509
			CHANNELS 3 Zrotation Yrotation Xrotation
			JOINT LeftLeg
			{
				OFFSET 43.500004 -0.000038 -0.000002
				CHANNELS 3 Zrotation Yrotation Xrotation
				JOINT LeftFoot
				{
					OFFSET 42.372196 0.000015 0.000010
					CHANNELS 3 Zrotation Yrotation Xrotation
					JOINT LeftToe
					{
						OFFSET 17.300011 0.000003 -0.000006
						CHANNELS 3 Zrotation Yrotation Xrotation
						End Site
						{
							OFFSET 0.000000 0.000000 0.000000
						}
					}
				}
			}
		}
		JOINT RightUpLeg
		{
			OFFSET 0.103461 1.857837 -10.548498
			CHANNELS 3 Zrotation Yrotation Xrotation
			JOINT RightLeg
			{
				OFFSET 43.500046 -0.000042 0.000031
				CHANNELS 3 Zrotation Yrotation Xrotation
				JOINT RightFoot
				{
					OFFSET 42.372253 0.000011 -0.000004
					CHANNELS 3 Zrotation Yrotation Xrotation
					JOINT RightToe
					{
						OFFSET 17.299978 -0.000010 0.000025
						CHANNELS 3 Zrotation Yrotation Xrotation
						End Site
						{
							OFFSET 0.000000 0.000000 0.000000
						}
					}
				}
			}
		}
		JOINT Spine
		{
			OFFSET 6.901964 -2.603743 0.000001
			CHANNELS 3 Zrotation Yrotation Xrotation
			JOINT Spine1
			{
				OFFSET 12.588102 0.000002 0.000000
				CHANNELS 3 Zrotation Yrotation Xrotation
				JOINT Spine2
				{
					OFFSET 12.343204 0.000009 -0.000003
					CHANNELS 3 Zrotation Yrotation Xrotation
					JOINT Neck
					{
						OFFSET 25.832901 -0.000015 0.000002
						CHANNELS 3 Zrotation Yrotation Xrotation
						JOINT Head
						{
							OFFSET 11.766612 0.000023 -0.000003
							CHANNELS 3 Zrotation Yrotation Xrotation
							End Site
							{
								OFFSET 0.000000 0.000000 0.000000
							}
						}
					}
					JOINT LeftShoulder
					{
						OFFSET 19.745905 -1.480377 6.000110
						CHANNELS 3 Zrotation Yrotation Xrotation
						JOINT LeftArm
						{
							OFFSET 11.284127 -0.000004 -0.000022
							CHANNELS 3 Zrotation Yrotation Xrotation
							JOINT LeftForeArm
							{
								OFFSET 33.000050 -0.000022 0.000026
								CHANNELS 3 Zrotation Yrotation Xrotation
								JOINT LeftHand
								{
									OFFSET 25.200010 0.000035 0.000011
									CHANNELS 3 Zrotation Yrotation Xrotation
									End Site
									{
										OFFSET 0.000000 0.000000 0.000000
									}
								}
							}
						}
					}
					JOINT RightShoulder
					{
						OFFSET 19.746092 -1.480381 -6.000066
						CHANNELS 3 Zrotation Yrotation Xrotation
						JOINT RightArm
						{
							OFFSET 11.284147 -0.000020 -0.000017
							CHANNELS 3 Zrotation Yrotation Xrotation
							JOINT RightForeArm
							{
								OFFSET 33.000095 0.000005 0.000016
								CHANNELS 3 Zrotation Yrotation Xrotation
								JOINT RightHand
								{
									OFFSET 25.199768 0.000156 0.000415
									CHANNELS 3 Zrotation Yrotation Xrotation
									End Site
									{
										OFFSET 0.000000 0.000000 0.000000
									}
								}
							}
						}
					}
				}
			}
		}
	}
}
MOTION
Frames: 10
Frame Time: 0.016667
-166.121233 0.000000 -473.146819 0.000000 58.434338 0.000000 3.922275 81.252052 0.383344 104.369286 5.386088 -176.537318 154.143490 -11.968904 174.508205 -78.056412 3.836423 -6.806633 94.662876 4.031173 -3.759862 21.454558 0.003113 0.000017 161.991064 -6.095311 -177.763910 -65.418267 2.581641 -6.819088 94.107192 3.525605 -7.689108 21.454553 -0.003090 0.000001 9.941151 2.944517 -2.391043 9.762587 6.080066 -4.530938 9.443662 6.052500 -4.567603 23.435708 -3.622864 -36.180607 -29.204597 19.120963 -47.743616 150.854001 -75.248456 28.337439 8.729719 49.759840 60.318922 -46.657872 -20.086731 2.011964 4.489197 9.476562 25.611463 -156.644117 74.408172 25.369086 -26.092647 -49.254341 -21.911606 -55.022063 19.205527 -2.203030 0.127595 14.573689 -8.226968 
-166.568451 0.000000 -475.931393 0.000000 56.276944 0.000000 3.960403 81.702720 0.280012 104.360854 5.319906 -176.989077 152.701355 -13.326835 174.369697 -73.096386 4.086969 -7.721461 91.726173 4.624950 -3.507122 21.454557 0.003104 0.000017 163.449101 -5.296002 -179.137743 -65.181061 2.459533 -7.947542 93.914369 4.307464 -7.413443 21.454551 -0.003094 0.000001 9.940150 2.903573 -2.327122 9.765211 5.992990 -4.406381 9.446272 5.966170 -4.442524 23.520454 -3.601466 -36.509773 -29.036529 19.122005 -48.047307 151.650184 -75.466295 27.514008 11.835638 50.140860 63.047830 -46.838663 -20.219008 2.026696 5.897339 11.442457 26.159117 -156.169829 74.491852 25.853340 -28.570368 -49.431556 -19.815817 -57.530475 19.292956 -2.302506 -0.098832 14.618503 -9.149173 
-167.024981 0.000000 -478.709566 0.000000 54.054419 0.000000 3.980886 82.185013 0.172734 104.354047 5.091217 -177.423629 151.831553 -14.648898 174.428346 -67.722752 4.393059 -8.056926 88.059019 4.731329 -3.835020 21.454557 0.003097 0.000017 164.900192 -4.304897 179.148567 -64.684827 2.459671 -8.961072 93.686781 5.014646 -7.105764 21.454551 -0.003094 0.000001 9.942592 2.823852 -2.276633 9.774978 5.829759 -4.311646 9.456085 5.803503 -4.346800 23.727179 -3.588958 -36.836555 -29.083245 19.216442 -48.448276 152.430805 -75.711871 26.705058 15.043826 50.730471 65.157899 -46.856036 -20.235622 2.028090 7.044291 12.520551 25.949208 -155.741398 74.565724 26.290672 -31.007354 -49.512542 -17.964720 -59.868902 19.278544 -2.386373 -0.542053 13.797694 -11.881600 
-167.496182 0.000000 -481.487122 0.000000 51.769936 0.000000 3.981575 82.647256 0.072809 104.304470 4.702846 -177.815804 151.374220 -15.985419 174.758468 -62.340587 4.623194 -7.279271 84.009744 3.872117 -4.979657 21.454558 0.003098 0.000017 166.275772 -3.060871 177.321660 -63.980134 2.491326 -9.959753 93.574724 5.719641 -6.809239 21.454554 -0.003094 0.000000 9.933938 2.703734 -2.236684 9.762926 5.586379 -4.241851 9.444152 5.560546 -4.275529 23.966934 -3.518689 -37.073820 -29.216032 19.370747 -48.810602 153.010296 -75.990407 26.099134 18.149814 51.464192 66.763163 -46.539938 -19.996678 2.001438 7.531566 12.586003 25.525441 -155.596117 74.557032 26.439686 -33.214240 -49.440017 -16.622440 -61.816259 19.258389 -2.458715 -1.449177 12.445987 -14.825867 
-167.984610 0.000000 -484.276209 0.000000 49.426907 0.000000 3.955153 83.059189 -0.018682 104.211870 4.248820 -178.225160 151.373834 -17.331800 175.411511 -56.879755 4.673713 -5.652800 80.026272 2.302027 -6.222900 21.454560 0.003105 0.000017 167.495732 -1.658300 175.466166 -63.170868 2.480485 -10.949334 93.521210 6.424268 -6.524277 21.454557 -0.003095 -0.000001 9.917620 2.567234 -2.183428 9.736487 5.308938 -4.147139 9.417839 5.283681 -4.179139 24.219805 -3.504495 -37.239604 -29.304062 19.592466 -49.115596 153.510617 -76.151809 25.580749 21.022787 52.086424 67.943127 -46.210170 -19.619713 1.967000 7.721604 12.411660 25.255832 -155.603100 74.512025 26.433523 -35.207848 -49.262516 -15.705837 -63.381101 19.216305 -2.518115 -2.531778 11.134918 -17.595211 
-168.488984 0.000000 -487.079636 0.000000 47.029739 0.000000 3.895828 83.401245 -0.107972 104.076353 3.821351 -178.712735 151.875817 -18.676776 176.488374 -51.247904 4.494688 -3.609413 76.439674 0.501608 -6.899472 21.454559 0.003113 0.000018 168.483617 -0.207938 173.608813 -62.346943 2.377489 -11.917415 93.436715 7.117643 -6.238444 21.454554 -0.003096 -0.000003 9.898187 2.438832 -2.094815 9.705046 5.044637 -3.981201 9.386469 5.020383 -4.011608 24.468425 -3.642946 -37.371811 -29.261322 19.879943 -49.371381 154.076471 -76.070546 25.009555 23.518129 52.384746 68.770772 -46.185401 -19.270366 1.943743 7.967527 12.674102 25.281312 -155.560118 74.487440 26.478097 -37.068192 -49.032341 -15.043131 -64.623101 19.107886 -2.559977 -3.439575 10.330225 -20.068643 
-169.008271 0.000000 -489.888177 0.000000 44.583202 0.000000 3.795424 83.675232 -0.193821 103.836704 3.420584 -179.253323 152.716649 -20.019498 178.333152 -45.712908 4.001066 -1.468347 73.199963 -1.304469 -7.224858 21.454558 0.003116 0.000019 169.159293 1.282000 171.716625 -61.495074 2.226037 -12.867199 93.309638 7.804802 -5.922150 21.454551 -0.003095 -0.000003 9.866954 2.319231 -1.976766 9.650708 4.795134 -3.756203 9.332163 4.772239 -3.785110 24.633272 -3.782742 -37.477619 -29.183365 20.150255 -49.579085 154.680738 -75.881300 24.405109 25.542553 52.517849 69.530490 -46.298283 -19.047253 1.931773 7.867020 12.743283 24.969611 -155.358593 74.465362 26.685021 -38.884642 -48.753777 -14.494464 -65.582868 18.888362 -2.583067 -3.896456 9.723594 -21.814909 
-169.544866 0.000000 -492.696268 0.000000 42.093161 0.000000 3.645927 83.886564 -0.262980 103.446810 3.032347 -179.810607 153.713554 -21.358650 -178.790286 -40.605941 3.209308 0.455022 70.211950 -2.981426 -7.559038 21.454558 0.003111 0.000017 169.462263 2.822912 169.757018 -60.594076 2.086222 -13.809813 93.135673 8.495927 -5.555724 21.454550 -0.003089 -0.000002 9.818233 2.204165 -1.841268 9.561527 4.552828 -3.496621 9.243000 4.531506 -3.524069 24.641274 -3.782220 -37.554907 -29.173269 20.331584 -49.739435 155.320445 -75.740373 23.761565 27.045047 52.667942 70.477414 -46.346997 -19.000961 1.930062 7.081726 11.939225 23.815228 -154.972940 74.426647 27.080943 -40.708729 -48.425725 -13.987860 -66.277466 18.557369 -2.588342 -3.738129 8.977497 -22.484055 
-170.102291 0.000000 -495.503333 0.000000 39.567538 0.000000 3.449002 84.033707 -0.290041 102.987472 2.658774 179.603997 154.887434 -22.649906 -175.240511 -36.143314 2.412665 1.787203 67.476155 -4.302185 -7.991694 21.454558 0.003105 0.000016 169.430410 4.413804 167.767068 -59.687745 1.984881 -14.777364 92.858764 9.206182 -5.178688 21.454551 -0.003084 0.000000 9.771395 2.093077 -1.696786 9.475883 4.317971 -3.218560 9.157365 4.298334 -3.244595 24.510530 -3.785138 -37.601171 -29.183365 20.481447 -49.854185 156.159624 -75.627778 22.912942 27.949145 52.792285 71.379190 -46.472907 -19.057852 1.937879 6.251164 10.728781 22.580363 -154.609116 74.423971 27.453699 -42.446104 -48.091409 -13.675278 -66.649244 18.293231 -2.584531 -3.290343 8.369650 -22.424049 
-170.681658 0.000000 -498.303886 0.000000 37.016976 0.000000 3.220282 84.106511 -0.266414 102.561352 2.295782 178.966110 156.307563 -23.841726 -171.480095 -32.484201 1.906750 2.352948 64.968226 -5.135750 -8.548485 21.454556 0.003106 0.000018 169.131844 6.062674 165.792456 -58.821986 1.928827 -15.805064 92.461140 9.955272 -4.827295 21.454551 -0.003084 -0.000000 9.748895 1.983429 -1.549605 9.438509 4.086557 -2.933966 9.119995 4.068637 -2.958612 24.290802 -3.955992 -37.614369 -29.143734 20.668033 -49.923765 157.282247 -75.500973 21.775748 28.229241 52.833358 71.928467 -46.851838 -19.126861 1.954092 6.008592 9.770855 22.095576 -154.521317 74.507097 27.541701 -43.971385 -47.797808 -13.683571 -66.663480 18.250082 -2.581872 -2.934911 8.157407 -22.075224 
